<svg width="71" height="29" viewBox="0 0 71 29" fill="none" xmlns="http://www.w3.org/2000/svg">
<path d="M0.896307 22V0.181818H5.50923V18.1967H14.8629V22H0.896307ZM25.226 22.3196C23.5712 22.3196 22.1401 21.968 20.9327 21.2649C19.7324 20.5547 18.8056 19.5675 18.1522 18.3033C17.4988 17.032 17.1721 15.5582 17.1721 13.8821C17.1721 12.1918 17.4988 10.7145 18.1522 9.45028C18.8056 8.17898 19.7324 7.19176 20.9327 6.48864C22.1401 5.77841 23.5712 5.4233 25.226 5.4233C26.8809 5.4233 28.3084 5.77841 29.5087 6.48864C30.7161 7.19176 31.6465 8.17898 32.2999 9.45028C32.9533 10.7145 33.28 12.1918 33.28 13.8821C33.28 15.5582 32.9533 17.032 32.2999 18.3033C31.6465 19.5675 30.7161 20.5547 29.5087 21.2649C28.3084 21.968 26.8809 22.3196 25.226 22.3196ZM25.2473 18.804C26.0002 18.804 26.6287 18.5909 27.133 18.1648C27.6373 17.7315 28.0172 17.142 28.2729 16.3963C28.5357 15.6506 28.6671 14.8018 28.6671 13.8501C28.6671 12.8984 28.5357 12.0497 28.2729 11.304C28.0172 10.5582 27.6373 9.96875 27.133 9.53551C26.6287 9.10227 26.0002 8.88565 25.2473 8.88565C24.4874 8.88565 23.8482 9.10227 23.3297 9.53551C22.8184 9.96875 22.4313 10.5582 22.1685 11.304C21.9128 12.0497 21.785 12.8984 21.785 13.8501C21.785 14.8018 21.9128 15.6506 22.1685 16.3963C22.4313 17.142 22.8184 17.7315 23.3297 18.1648C23.8482 18.5909 24.4874 18.804 25.2473 18.804ZM43.6032 28.4773C42.133 28.4773 40.8723 28.2749 39.8212 27.87C38.7772 27.4723 37.9462 26.929 37.3283 26.2401C36.7104 25.5511 36.3091 24.777 36.1245 23.9176L40.3219 23.353C40.4498 23.6797 40.6522 23.9851 40.9292 24.2692C41.2061 24.5533 41.5719 24.7805 42.0265 24.951C42.4881 25.1286 43.0492 25.2173 43.7097 25.2173C44.6969 25.2173 45.5101 24.9759 46.1493 24.4929C46.7956 24.017 47.1188 23.218 47.1188 22.0959V19.1023H46.927C46.7282 19.5568 46.4299 19.9865 46.0321 20.3913C45.6344 20.7962 45.123 21.1264 44.498 21.3821C43.873 21.6378 43.1273 21.7656 42.2608 21.7656C41.0321 21.7656 39.9135 21.4815 38.905 20.9134C37.9036 20.3381 37.1046 19.4609 36.508 18.282C35.9185 17.0959 35.6238 15.5973 35.6238 13.7862C35.6238 11.9325 35.9256 10.3842 36.5293 9.14133C37.133 7.89844 37.9355 6.96804 38.937 6.35014C39.9455 5.73224 41.0499 5.4233 42.2502 5.4233C43.1664 5.4233 43.9334 5.57955 44.5513 5.89205C45.1692 6.19744 45.6664 6.58097 46.0428 7.04261C46.4263 7.49716 46.7211 7.9446 46.927 8.38494H47.0975V5.63636H51.6039V22.1598C51.6039 23.5518 51.263 24.7166 50.5811 25.6541C49.8993 26.5916 48.9547 27.2947 47.7473 27.7635C46.5471 28.2393 45.1657 28.4773 43.6032 28.4773ZM43.699 18.3565C44.4306 18.3565 45.0485 18.1754 45.5527 17.8132C46.0641 17.4439 46.4547 16.9183 46.7246 16.2365C47.0016 15.5476 47.1401 14.7237 47.1401 13.7649C47.1401 12.8061 47.0051 11.9751 46.7353 11.272C46.4654 10.5618 46.0748 10.0114 45.5634 9.62074C45.052 9.23011 44.4306 9.0348 43.699 9.0348C42.9533 9.0348 42.3248 9.23722 41.8134 9.64204C41.302 10.0398 40.915 10.5937 40.6522 11.304C40.3894 12.0142 40.258 12.8345 40.258 13.7649C40.258 14.7095 40.3894 15.5263 40.6522 16.2152C40.9221 16.897 41.3091 17.4261 41.8134 17.8026C42.3248 18.1719 42.9533 18.3565 43.699 18.3565ZM62.6088 22.3196C60.954 22.3196 59.5229 21.968 58.3155 21.2649C57.1152 20.5547 56.1884 19.5675 55.535 18.3033C54.8816 17.032 54.5549 15.5582 54.5549 13.8821C54.5549 12.1918 54.8816 10.7145 55.535 9.45028C56.1884 8.17898 57.1152 7.19176 58.3155 6.48864C59.5229 5.77841 60.954 5.4233 62.6088 5.4233C64.2637 5.4233 65.6912 5.77841 66.8915 6.48864C68.0989 7.19176 69.0293 8.17898 69.6827 9.45028C70.3361 10.7145 70.6628 12.1918 70.6628 13.8821C70.6628 15.5582 70.3361 17.032 69.6827 18.3033C69.0293 19.5675 68.0989 20.5547 66.8915 21.2649C65.6912 21.968 64.2637 22.3196 62.6088 22.3196ZM62.6301 18.804C63.383 18.804 64.0115 18.5909 64.5158 18.1648C65.0201 17.7315 65.4 17.142 65.6557 16.3963C65.9185 15.6506 66.0499 14.8018 66.0499 13.8501C66.0499 12.8984 65.9185 12.0497 65.6557 11.304C65.4 10.5582 65.0201 9.96875 64.5158 9.53551C64.0115 9.10227 63.383 8.88565 62.6301 8.88565C61.8702 8.88565 61.231 9.10227 60.7125 9.53551C60.2012 9.96875 59.8141 10.5582 59.5513 11.304C59.2956 12.0497 59.1678 12.8984 59.1678 13.8501C59.1678 14.8018 59.2956 15.6506 59.5513 16.3963C59.8141 17.142 60.2012 17.7315 60.7125 18.1648C61.231 18.5909 61.8702 18.804 62.6301 18.804Z" fill="black"/>
</svg>
